<svg width="103" height="106" viewBox="0 0 103 106" fill="none" xmlns="http://www.w3.org/2000/svg">
<path fill-rule="evenodd" clip-rule="evenodd" d="M102 81.5L102.5 106C90 106 81 94.8 81 86V74L81 61.594C76.635 63.7737 71.7107 65 66.5 65C48.5508 65 34 50.4492 34 32.5C34 14.5507 48.5508 -8.9407e-06 66.5 -8.9407e-06C71.7107 -8.9407e-06 76.635 1.22625 81 3.40593V-8.9407e-06H102L102 81.5ZM51 32.5C51 23.3873 58.3873 16 67.5 16C76.6127 16 84 23.3873 84 32.5C84 41.6127 76.6127 49 67.5 49C58.3873 49 51 41.6127 51 32.5Z" fill="#CA9263"/>
<path fill-rule="evenodd" clip-rule="evenodd" d="M0.500122 24.5L0.00012207 0C12.5001 0 21.5001 11.2 21.5001 20V32V44.406C25.8652 42.2263 30.7894 41 36.0001 41C53.9494 41 68.5001 55.5508 68.5001 73.5C68.5001 91.4493 53.9494 106 36.0001 106C30.7894 106 25.8652 104.774 21.5001 102.594V106H0.500122L0.500122 24.5ZM51.5001 73.5C51.5001 82.6127 44.1128 90 35.0001 90C25.8874 90 18.5001 82.6127 18.5001 73.5C18.5001 64.3873 25.8874 57 35.0001 57C44.1128 57 51.5001 64.3873 51.5001 73.5Z" fill="#113E67"/>
</svg>
