<svg width="79" height="120" viewBox="0 0 79 120" fill="none" xmlns="http://www.w3.org/2000/svg">
<path fill-rule="evenodd" clip-rule="evenodd" d="M77.8623 81.5L78.3623 106C65.8623 106 56.8623 94.8 56.8623 86L56.8623 74L56.8623 61.594C52.4973 63.7737 47.573 65 42.3623 65C24.4131 65 9.86231 50.4492 9.86231 32.5C9.86231 14.5507 24.4131 -8.9407e-06 42.3623 -8.9407e-06C47.573 -8.9407e-06 52.4973 1.22625 56.8623 3.40593V-8.9407e-06H77.8623L77.8623 81.5ZM26.8623 32.5C26.8623 23.3873 34.2496 16 43.3623 16C52.475 16 59.8623 23.3873 59.8623 32.5C59.8623 41.6127 52.475 49 43.3623 49C34.2496 49 26.8623 41.6127 26.8623 32.5Z" fill="#CA9263"/>
<path fill-rule="evenodd" clip-rule="evenodd" d="M0.5 37.7832L0 13.2832C12.5 13.2832 21.5 24.4832 21.5 33.2832V45.2832V57.6892C25.865 55.5095 30.7893 54.2832 36 54.2832C53.9493 54.2832 68.5 68.834 68.5 86.7832C68.5 104.732 53.9493 119.283 36 119.283C30.7893 119.283 25.865 118.057 21.5 115.877V119.283H0.5L0.5 37.7832ZM51.5 86.7832C51.5 95.8959 44.1127 103.283 35 103.283C25.8873 103.283 18.5 95.8959 18.5 86.7832C18.5 77.6705 25.8873 70.2832 35 70.2832C44.1127 70.2832 51.5 77.6705 51.5 86.7832Z" fill="#113E67"/>
</svg>
