<svg width="409" height="120" viewBox="0 0 409 120" fill="none" xmlns="http://www.w3.org/2000/svg">
<path fill-rule="evenodd" clip-rule="evenodd" d="M77.8623 81.5L78.3623 106C65.8623 106 56.8623 94.8 56.8623 86L56.8623 74L56.8623 61.594C52.4973 63.7737 47.573 65 42.3623 65C24.4131 65 9.86231 50.4492 9.86231 32.5C9.86231 14.5507 24.4131 -8.9407e-06 42.3623 -8.9407e-06C47.573 -8.9407e-06 52.4973 1.22625 56.8623 3.40593V-8.9407e-06H77.8623L77.8623 81.5ZM26.8623 32.5C26.8623 23.3873 34.2496 16 43.3623 16C52.475 16 59.8623 23.3873 59.8623 32.5C59.8623 41.6127 52.475 49 43.3623 49C34.2496 49 26.8623 41.6127 26.8623 32.5Z" fill="#CA9263"/>
<path fill-rule="evenodd" clip-rule="evenodd" d="M0.5 37.7832L0 13.2832C12.5 13.2832 21.5 24.4832 21.5 33.2832V45.2832V57.6892C25.865 55.5095 30.7893 54.2832 36 54.2832C53.9493 54.2832 68.5 68.834 68.5 86.7832C68.5 104.732 53.9493 119.283 36 119.283C30.7893 119.283 25.865 118.057 21.5 115.877V119.283H0.5L0.5 37.7832ZM51.5 86.7832C51.5 95.8959 44.1127 103.283 35 103.283C25.8873 103.283 18.5 95.8959 18.5 86.7832C18.5 77.6705 25.8873 70.2832 35 70.2832C44.1127 70.2832 51.5 77.6705 51.5 86.7832Z" fill="#113E67"/>
<path d="M110.875 86.0312H99.1875L99.125 79.5938H108.938C110.667 79.5938 112.083 79.375 113.188 78.9375C114.292 78.4792 115.115 77.8229 115.656 76.9688C116.219 76.0938 116.5 75.0312 116.5 73.7812C116.5 72.3646 116.229 71.2188 115.688 70.3438C115.167 69.4688 114.344 68.8333 113.219 68.4375C112.115 68.0417 110.688 67.8438 108.938 67.8438H102.438V106H93.0625V60.5H108.938C111.583 60.5 113.948 60.75 116.031 61.25C118.135 61.75 119.917 62.5104 121.375 63.5312C122.833 64.5521 123.948 65.8438 124.719 67.4062C125.49 68.9479 125.875 70.7812 125.875 72.9062C125.875 74.7812 125.448 76.5104 124.594 78.0938C123.76 79.6771 122.438 80.9688 120.625 81.9688C118.833 82.9688 116.49 83.5208 113.594 83.625L110.875 86.0312ZM110.469 106H96.625L100.281 98.6875H110.469C112.115 98.6875 113.458 98.4271 114.5 97.9062C115.542 97.3646 116.312 96.6354 116.812 95.7188C117.312 94.8021 117.562 93.75 117.562 92.5625C117.562 91.2292 117.333 90.0729 116.875 89.0938C116.438 88.1146 115.729 87.3646 114.75 86.8438C113.771 86.3021 112.479 86.0312 110.875 86.0312H101.844L101.906 79.5938H113.156L115.312 82.125C118.083 82.0833 120.312 82.5729 122 83.5938C123.708 84.5938 124.948 85.8958 125.719 87.5C126.51 89.1042 126.906 90.8229 126.906 92.6562C126.906 95.5729 126.271 98.0312 125 100.031C123.729 102.01 121.865 103.5 119.406 104.5C116.969 105.5 113.99 106 110.469 106ZM151.625 98.375V83.3125C151.625 82.2292 151.448 81.3021 151.094 80.5312C150.74 79.7396 150.188 79.125 149.438 78.6875C148.708 78.25 147.76 78.0312 146.594 78.0312C145.594 78.0312 144.729 78.2083 144 78.5625C143.271 78.8958 142.708 79.3854 142.312 80.0312C141.917 80.6562 141.719 81.3958 141.719 82.25H132.719C132.719 80.8125 133.052 79.4479 133.719 78.1562C134.385 76.8646 135.354 75.7292 136.625 74.75C137.896 73.75 139.406 72.9688 141.156 72.4062C142.927 71.8438 144.906 71.5625 147.094 71.5625C149.719 71.5625 152.052 72 154.094 72.875C156.135 73.75 157.74 75.0625 158.906 76.8125C160.094 78.5625 160.688 80.75 160.688 83.375V97.8438C160.688 99.6979 160.802 101.219 161.031 102.406C161.26 103.573 161.594 104.594 162.031 105.469V106H152.938C152.5 105.083 152.167 103.938 151.938 102.562C151.729 101.167 151.625 99.7708 151.625 98.375ZM152.812 85.4062L152.875 90.5H147.844C146.656 90.5 145.625 90.6354 144.75 90.9062C143.875 91.1771 143.156 91.5625 142.594 92.0625C142.031 92.5417 141.615 93.1042 141.344 93.75C141.094 94.3958 140.969 95.1042 140.969 95.875C140.969 96.6458 141.146 97.3438 141.5 97.9688C141.854 98.5729 142.365 99.0521 143.031 99.4062C143.698 99.7396 144.479 99.9062 145.375 99.9062C146.729 99.9062 147.906 99.6354 148.906 99.0938C149.906 98.5521 150.677 97.8854 151.219 97.0938C151.781 96.3021 152.073 95.5521 152.094 94.8438L154.469 98.6562C154.135 99.5104 153.677 100.396 153.094 101.312C152.531 102.229 151.812 103.094 150.938 103.906C150.062 104.698 149.01 105.354 147.781 105.875C146.552 106.375 145.094 106.625 143.406 106.625C141.26 106.625 139.312 106.198 137.562 105.344C135.833 104.469 134.458 103.271 133.438 101.75C132.438 100.208 131.938 98.4583 131.938 96.5C131.938 94.7292 132.271 93.1562 132.938 91.7812C133.604 90.4062 134.583 89.25 135.875 88.3125C137.188 87.3542 138.823 86.6354 140.781 86.1562C142.74 85.6562 145.01 85.4062 147.594 85.4062H152.812ZM176.625 79.5625V106H167.625V72.1875H176.094L176.625 79.5625ZM186.812 71.9688L186.656 80.3125C186.219 80.25 185.688 80.1979 185.062 80.1562C184.458 80.0938 183.906 80.0625 183.406 80.0625C182.135 80.0625 181.031 80.2292 180.094 80.5625C179.177 80.875 178.406 81.3438 177.781 81.9688C177.177 82.5938 176.719 83.3542 176.406 84.25C176.115 85.1458 175.948 86.1667 175.906 87.3125L174.094 86.75C174.094 84.5625 174.312 82.5521 174.75 80.7188C175.188 78.8646 175.823 77.25 176.656 75.875C177.51 74.5 178.552 73.4375 179.781 72.6875C181.01 71.9375 182.417 71.5625 184 71.5625C184.5 71.5625 185.01 71.6042 185.531 71.6875C186.052 71.75 186.479 71.8438 186.812 71.9688ZM208.25 98.375V83.3125C208.25 82.2292 208.073 81.3021 207.719 80.5312C207.365 79.7396 206.812 79.125 206.062 78.6875C205.333 78.25 204.385 78.0312 203.219 78.0312C202.219 78.0312 201.354 78.2083 200.625 78.5625C199.896 78.8958 199.333 79.3854 198.938 80.0312C198.542 80.6562 198.344 81.3958 198.344 82.25H189.344C189.344 80.8125 189.677 79.4479 190.344 78.1562C191.01 76.8646 191.979 75.7292 193.25 74.75C194.521 73.75 196.031 72.9688 197.781 72.4062C199.552 71.8438 201.531 71.5625 203.719 71.5625C206.344 71.5625 208.677 72 210.719 72.875C212.76 73.75 214.365 75.0625 215.531 76.8125C216.719 78.5625 217.312 80.75 217.312 83.375V97.8438C217.312 99.6979 217.427 101.219 217.656 102.406C217.885 103.573 218.219 104.594 218.656 105.469V106H209.562C209.125 105.083 208.792 103.938 208.562 102.562C208.354 101.167 208.25 99.7708 208.25 98.375ZM209.438 85.4062L209.5 90.5H204.469C203.281 90.5 202.25 90.6354 201.375 90.9062C200.5 91.1771 199.781 91.5625 199.219 92.0625C198.656 92.5417 198.24 93.1042 197.969 93.75C197.719 94.3958 197.594 95.1042 197.594 95.875C197.594 96.6458 197.771 97.3438 198.125 97.9688C198.479 98.5729 198.99 99.0521 199.656 99.4062C200.323 99.7396 201.104 99.9062 202 99.9062C203.354 99.9062 204.531 99.6354 205.531 99.0938C206.531 98.5521 207.302 97.8854 207.844 97.0938C208.406 96.3021 208.698 95.5521 208.719 94.8438L211.094 98.6562C210.76 99.5104 210.302 100.396 209.719 101.312C209.156 102.229 208.438 103.094 207.562 103.906C206.688 104.698 205.635 105.354 204.406 105.875C203.177 106.375 201.719 106.625 200.031 106.625C197.885 106.625 195.938 106.198 194.188 105.344C192.458 104.469 191.083 103.271 190.062 101.75C189.062 100.208 188.562 98.4583 188.562 96.5C188.562 94.7292 188.896 93.1562 189.562 91.7812C190.229 90.4062 191.208 89.25 192.5 88.3125C193.812 87.3542 195.448 86.6354 197.406 86.1562C199.365 85.6562 201.635 85.4062 204.219 85.4062H209.438ZM233.062 79.4062V106H224.062V72.1875H232.5L233.062 79.4062ZM231.75 87.9062H229.312C229.312 85.4062 229.635 83.1562 230.281 81.1562C230.927 79.1354 231.833 77.4167 233 76C234.167 74.5625 235.552 73.4688 237.156 72.7188C238.781 71.9479 240.594 71.5625 242.594 71.5625C244.177 71.5625 245.625 71.7917 246.938 72.25C248.25 72.7083 249.375 73.4375 250.312 74.4375C251.271 75.4375 252 76.7604 252.5 78.4062C253.021 80.0521 253.281 82.0625 253.281 84.4375V106H244.219V84.4062C244.219 82.9062 244.01 81.7396 243.594 80.9062C243.177 80.0729 242.562 79.4896 241.75 79.1562C240.958 78.8021 239.979 78.625 238.812 78.625C237.604 78.625 236.552 78.8646 235.656 79.3438C234.781 79.8229 234.052 80.4896 233.469 81.3438C232.906 82.1771 232.479 83.1562 232.188 84.2812C231.896 85.4062 231.75 86.6146 231.75 87.9062ZM281.531 72.1875H289.688V104.875C289.688 107.958 289 110.573 287.625 112.719C286.271 114.885 284.375 116.521 281.938 117.625C279.5 118.75 276.667 119.312 273.438 119.312C272.021 119.312 270.521 119.125 268.938 118.75C267.375 118.375 265.875 117.792 264.438 117C263.021 116.208 261.833 115.208 260.875 114L264.844 108.688C265.885 109.896 267.094 110.833 268.469 111.5C269.844 112.188 271.365 112.531 273.031 112.531C274.656 112.531 276.031 112.229 277.156 111.625C278.281 111.042 279.146 110.177 279.75 109.031C280.354 107.906 280.656 106.542 280.656 104.938V80L281.531 72.1875ZM258.781 89.5V88.8438C258.781 86.2604 259.094 83.9167 259.719 81.8125C260.365 79.6875 261.271 77.8646 262.438 76.3438C263.625 74.8229 265.062 73.6458 266.75 72.8125C268.438 71.9792 270.344 71.5625 272.469 71.5625C274.719 71.5625 276.604 71.9792 278.125 72.8125C279.646 73.6458 280.896 74.8333 281.875 76.375C282.854 77.8958 283.615 79.6979 284.156 81.7812C284.719 83.8438 285.156 86.1042 285.469 88.5625V90C285.156 92.3542 284.688 94.5417 284.062 96.5625C283.438 98.5833 282.615 100.354 281.594 101.875C280.573 103.375 279.302 104.542 277.781 105.375C276.281 106.208 274.49 106.625 272.406 106.625C270.323 106.625 268.438 106.198 266.75 105.344C265.083 104.49 263.656 103.292 262.469 101.75C261.281 100.208 260.365 98.3958 259.719 96.3125C259.094 94.2292 258.781 91.9583 258.781 89.5ZM267.781 88.8438V89.5C267.781 90.8958 267.917 92.1979 268.188 93.4062C268.458 94.6146 268.875 95.6875 269.438 96.625C270.021 97.5417 270.74 98.2604 271.594 98.7812C272.469 99.2812 273.5 99.5312 274.688 99.5312C276.333 99.5312 277.677 99.1875 278.719 98.5C279.76 97.7917 280.542 96.8229 281.062 95.5938C281.583 94.3646 281.885 92.9479 281.969 91.3438V87.25C281.927 85.9375 281.75 84.7604 281.438 83.7188C281.125 82.6562 280.688 81.75 280.125 81C279.562 80.25 278.833 79.6667 277.938 79.25C277.042 78.8333 275.979 78.625 274.75 78.625C273.562 78.625 272.531 78.8958 271.656 79.4375C270.802 79.9583 270.083 80.6771 269.5 81.5938C268.938 82.5104 268.51 83.5938 268.219 84.8438C267.927 86.0729 267.781 87.4062 267.781 88.8438Z" fill="#113E67"/>
<path d="M321.969 99.25L334.281 109L328.375 114.125L316.25 104.375L321.969 99.25ZM334.594 82.1875V84.3438C334.594 87.8021 334.125 90.9062 333.188 93.6562C332.271 96.4062 330.948 98.75 329.219 100.688C327.49 102.604 325.448 104.073 323.094 105.094C320.74 106.115 318.125 106.625 315.25 106.625C312.396 106.625 309.781 106.115 307.406 105.094C305.031 104.073 302.979 102.604 301.25 100.688C299.521 98.75 298.177 96.4062 297.219 93.6562C296.281 90.9062 295.812 87.8021 295.812 84.3438V82.1875C295.812 78.7083 296.281 75.6042 297.219 72.875C298.177 70.125 299.51 67.7812 301.219 65.8438C302.927 63.9062 304.969 62.4271 307.344 61.4062C309.719 60.3854 312.333 59.875 315.188 59.875C318.062 59.875 320.677 60.3854 323.031 61.4062C325.406 62.4271 327.458 63.9062 329.188 65.8438C330.917 67.7812 332.25 70.125 333.188 72.875C334.125 75.6042 334.594 78.7083 334.594 82.1875ZM325.125 84.3438V82.125C325.125 79.7083 324.896 77.5833 324.438 75.75C324 73.9167 323.354 72.375 322.5 71.125C321.667 69.875 320.635 68.9375 319.406 68.3125C318.177 67.6667 316.771 67.3438 315.188 67.3438C313.604 67.3438 312.198 67.6667 310.969 68.3125C309.74 68.9375 308.708 69.875 307.875 71.125C307.042 72.375 306.406 73.9167 305.969 75.75C305.531 77.5833 305.312 79.7083 305.312 82.125V84.3438C305.312 86.7396 305.531 88.8646 305.969 90.7188C306.406 92.5521 307.042 94.1042 307.875 95.375C308.729 96.625 309.771 97.5729 311 98.2188C312.25 98.8646 313.667 99.1875 315.25 99.1875C316.833 99.1875 318.229 98.8646 319.438 98.2188C320.667 97.5729 321.698 96.625 322.531 95.375C323.385 94.1042 324.031 92.5521 324.469 90.7188C324.906 88.8646 325.125 86.7396 325.125 84.3438ZM360.812 97.9062V72.1875H369.812V106H361.344L360.812 97.9062ZM361.812 90.9688L364.469 90.9062C364.469 93.1562 364.208 95.25 363.688 97.1875C363.167 99.1042 362.385 100.771 361.344 102.188C360.302 103.583 358.99 104.677 357.406 105.469C355.823 106.24 353.958 106.625 351.812 106.625C350.167 106.625 348.646 106.396 347.25 105.938C345.875 105.458 344.688 104.719 343.688 103.719C342.708 102.698 341.938 101.396 341.375 99.8125C340.833 98.2083 340.562 96.2812 340.562 94.0312V72.1875H349.562V94.0938C349.562 95.0938 349.677 95.9375 349.906 96.625C350.156 97.3125 350.5 97.875 350.938 98.3125C351.375 98.75 351.885 99.0625 352.469 99.25C353.073 99.4375 353.74 99.5312 354.469 99.5312C356.323 99.5312 357.781 99.1562 358.844 98.4062C359.927 97.6562 360.688 96.6354 361.125 95.3438C361.583 94.0312 361.812 92.5729 361.812 90.9688ZM392.25 106.625C389.625 106.625 387.271 106.208 385.188 105.375C383.104 104.521 381.333 103.344 379.875 101.844C378.438 100.344 377.333 98.6042 376.562 96.625C375.792 94.625 375.406 92.5 375.406 90.25V89C375.406 86.4375 375.771 84.0938 376.5 81.9688C377.229 79.8438 378.271 78 379.625 76.4375C381 74.875 382.667 73.6771 384.625 72.8438C386.583 71.9896 388.792 71.5625 391.25 71.5625C393.646 71.5625 395.771 71.9583 397.625 72.75C399.479 73.5417 401.031 74.6667 402.281 76.125C403.552 77.5833 404.51 79.3333 405.156 81.375C405.802 83.3958 406.125 85.6458 406.125 88.125V91.875H379.25V85.875H397.281V85.1875C397.281 83.9375 397.052 82.8229 396.594 81.8438C396.156 80.8438 395.49 80.0521 394.594 79.4688C393.698 78.8854 392.552 78.5938 391.156 78.5938C389.969 78.5938 388.948 78.8542 388.094 79.375C387.24 79.8958 386.542 80.625 386 81.5625C385.479 82.5 385.083 83.6042 384.812 84.875C384.562 86.125 384.438 87.5 384.438 89V90.25C384.438 91.6042 384.625 92.8542 385 94C385.396 95.1458 385.948 96.1354 386.656 96.9688C387.385 97.8021 388.26 98.4479 389.281 98.9062C390.323 99.3646 391.5 99.5938 392.812 99.5938C394.438 99.5938 395.948 99.2812 397.344 98.6562C398.76 98.0104 399.979 97.0417 401 95.75L405.375 100.5C404.667 101.521 403.698 102.5 402.469 103.438C401.26 104.375 399.802 105.146 398.094 105.75C396.385 106.333 394.438 106.625 392.25 106.625Z" fill="#CA9263"/>
</svg>
